<mxfile host="Electron" modified="2024-02-01T14:31:33.702Z" agent="Mozilla/5.0 (Windows NT 10.0; Win64; x64) AppleWebKit/537.36 (KHTML, like Gecko) draw.io/21.7.5 Chrome/114.0.5735.289 Electron/25.8.1 Safari/537.36" etag="CLuedtxqGIe4F1DBwT7E" version="21.7.5" type="device">
  <diagram name="第 1 页" id="sIediK8FK-6k7UxEJ6mK">
    <mxGraphModel dx="1036" dy="614" grid="0" gridSize="10" guides="1" tooltips="1" connect="1" arrows="1" fold="1" page="0" pageScale="1" pageWidth="827" pageHeight="1169" math="0" shadow="0">
      <root>
        <mxCell id="0" />
        <mxCell id="1" parent="0" />
        <mxCell id="Z24hIA3jWynf53QsHg5w-1" value="&lt;div style=&quot;language:zh-CN;line-height:120%;margin-top:14.0pt;margin-bottom:&lt;br/&gt;2.0pt;margin-left:.3in;text-indent:-.3in;text-align:left;direction:ltr;&lt;br/&gt;unicode-bidi:embed;mso-line-break-override:none;word-break:normal;punctuation-wrap:&lt;br/&gt;hanging&quot;&gt;&lt;span style=&quot;font-size:24.0pt;font-family:微软雅黑;mso-ascii-font-family:微软雅黑;mso-fareast-font-family:&lt;br/&gt;微软雅黑;mso-bidi-font-family:+mn-cs;mso-ascii-theme-font:minor-latin;mso-fareast-theme-font:&lt;br/&gt;minor-fareast;mso-bidi-theme-font:minor-bidi;color:#3F3F3F;mso-color-index:&lt;br/&gt;1;letter-spacing:.1pt;mso-font-kerning:12.0pt;language:en-US;vertical-align:&lt;br/&gt;baseline;mso-text-raise:0%;mso-style-textfill-type:solid;mso-style-textfill-fill-themecolor:&lt;br/&gt;text1;mso-style-textfill-fill-color:#3F3F3F;mso-style-textfill-fill-alpha:100.0%&quot;&gt;Script&lt;/span&gt;&lt;/div&gt;" style="text;whiteSpace=wrap;html=1;" vertex="1" parent="1">
          <mxGeometry x="349" y="30" width="130" height="70" as="geometry" />
        </mxCell>
        <mxCell id="Z24hIA3jWynf53QsHg5w-2" value="&lt;div style=&quot;language:zh-CN;line-height:120%;margin-top:14.0pt;margin-bottom:&lt;br/&gt;2.0pt;margin-left:.3in;text-indent:-.3in;text-align:left;direction:ltr;&lt;br/&gt;unicode-bidi:embed;mso-line-break-override:none;word-break:normal;punctuation-wrap:&lt;br/&gt;hanging&quot;&gt;&lt;span style=&quot;font-size:24.0pt;font-family:微软雅黑;mso-ascii-font-family:微软雅黑;mso-fareast-font-family:&lt;br/&gt;微软雅黑;mso-bidi-font-family:+mn-cs;mso-ascii-theme-font:minor-latin;mso-fareast-theme-font:&lt;br/&gt;minor-fareast;mso-bidi-theme-font:minor-bidi;color:#3F3F3F;mso-color-index:&lt;br/&gt;1;letter-spacing:.1pt;mso-font-kerning:12.0pt;language:en-US;vertical-align:&lt;br/&gt;baseline;mso-text-raise:0%;mso-style-textfill-type:solid;mso-style-textfill-fill-themecolor:&lt;br/&gt;text1;mso-style-textfill-fill-color:#3F3F3F;mso-style-textfill-fill-alpha:100.0%&quot;&gt;run.py&lt;/span&gt;&lt;/div&gt;" style="text;whiteSpace=wrap;html=1;" vertex="1" parent="1">
          <mxGeometry x="349" y="130" width="111" height="70" as="geometry" />
        </mxCell>
        <mxCell id="Z24hIA3jWynf53QsHg5w-3" value="&lt;div style=&quot;language:zh-CN;line-height:120%;margin-top:14.0pt;margin-bottom:&lt;br/&gt;2.0pt;margin-left:.3in;text-indent:-.3in;text-align:left;direction:ltr;&lt;br/&gt;unicode-bidi:embed;mso-line-break-override:none;word-break:normal;punctuation-wrap:&lt;br/&gt;hanging&quot;&gt;&lt;span style=&quot;font-size:24.0pt;font-family:微软雅黑;mso-ascii-font-family:微软雅黑;mso-fareast-font-family:&lt;br/&gt;微软雅黑;mso-bidi-font-family:+mn-cs;mso-ascii-theme-font:minor-latin;mso-fareast-theme-font:&lt;br/&gt;minor-fareast;mso-bidi-theme-font:minor-bidi;color:#3F3F3F;mso-color-index:&lt;br/&gt;1;letter-spacing:.1pt;mso-font-kerning:12.0pt;language:en-US;vertical-align:&lt;br/&gt;baseline;mso-text-raise:0%;mso-style-textfill-type:solid;mso-style-textfill-fill-themecolor:&lt;br/&gt;text1;mso-style-textfill-fill-color:#3F3F3F;mso-style-textfill-fill-alpha:100.0%&quot;&gt;Experiments&lt;/span&gt;&lt;/div&gt;" style="text;whiteSpace=wrap;html=1;" vertex="1" parent="1">
          <mxGeometry x="310" y="240" width="230" height="70" as="geometry" />
        </mxCell>
        <mxCell id="Z24hIA3jWynf53QsHg5w-4" value="&lt;div style=&quot;language:zh-CN;line-height:120%;margin-top:14.0pt;margin-bottom:&lt;br/&gt;2.0pt;margin-left:.3in;text-indent:-.3in;text-align:left;direction:ltr;&lt;br/&gt;unicode-bidi:embed;mso-line-break-override:none;word-break:normal;punctuation-wrap:&lt;br/&gt;hanging&quot;&gt;&lt;span style=&quot;font-size:24.0pt;font-family:微软雅黑;mso-ascii-font-family:微软雅黑;mso-fareast-font-family:&lt;br/&gt;微软雅黑;mso-bidi-font-family:+mn-cs;mso-ascii-theme-font:minor-latin;mso-fareast-theme-font:&lt;br/&gt;minor-fareast;mso-bidi-theme-font:minor-bidi;color:#3F3F3F;mso-color-index:&lt;br/&gt;1;letter-spacing:.1pt;mso-font-kerning:12.0pt;language:en-US;vertical-align:&lt;br/&gt;baseline;mso-text-raise:0%;mso-style-textfill-type:solid;mso-style-textfill-fill-themecolor:&lt;br/&gt;text1;mso-style-textfill-fill-color:#3F3F3F;mso-style-textfill-fill-alpha:100.0%&quot;&gt;Model&lt;/span&gt;&lt;/div&gt;" style="text;whiteSpace=wrap;html=1;" vertex="1" parent="1">
          <mxGeometry x="155" y="340" width="140" height="70" as="geometry" />
        </mxCell>
        <mxCell id="Z24hIA3jWynf53QsHg5w-5" value="&lt;div style=&quot;language:zh-CN;line-height:120%;margin-top:14.0pt;margin-bottom:&lt;br/&gt;2.0pt;margin-left:.3in;text-indent:-.3in;text-align:left;direction:ltr;&lt;br/&gt;unicode-bidi:embed;mso-line-break-override:none;word-break:normal;punctuation-wrap:&lt;br/&gt;hanging&quot;&gt;&lt;span style=&quot;font-size:24.0pt;font-family:微软雅黑;mso-ascii-font-family:微软雅黑;mso-fareast-font-family:&lt;br/&gt;微软雅黑;mso-bidi-font-family:+mn-cs;mso-ascii-theme-font:minor-latin;mso-fareast-theme-font:&lt;br/&gt;minor-fareast;mso-bidi-theme-font:minor-bidi;color:#3F3F3F;mso-color-index:&lt;br/&gt;1;letter-spacing:.1pt;mso-font-kerning:12.0pt;language:en-US;vertical-align:&lt;br/&gt;baseline;mso-text-raise:0%;mso-style-textfill-type:solid;mso-style-textfill-fill-themecolor:&lt;br/&gt;text1;mso-style-textfill-fill-color:#3F3F3F;mso-style-textfill-fill-alpha:100.0%&quot;&gt;Layers&lt;/span&gt;&lt;/div&gt;" style="text;whiteSpace=wrap;html=1;" vertex="1" parent="1">
          <mxGeometry x="155" y="430" width="140" height="70" as="geometry" />
        </mxCell>
        <mxCell id="Z24hIA3jWynf53QsHg5w-6" value="&lt;div style=&quot;language:zh-CN;line-height:120%;margin-top:14.0pt;margin-bottom:&lt;br/&gt;2.0pt;margin-left:.3in;text-indent:-.3in;text-align:left;direction:ltr;&lt;br/&gt;unicode-bidi:embed;mso-line-break-override:none;word-break:normal;punctuation-wrap:&lt;br/&gt;hanging&quot;&gt;&lt;span style=&quot;font-size:24.0pt;font-family:微软雅黑;mso-ascii-font-family:微软雅黑;mso-fareast-font-family:&lt;br/&gt;微软雅黑;mso-bidi-font-family:+mn-cs;mso-ascii-theme-font:minor-latin;mso-fareast-theme-font:&lt;br/&gt;minor-fareast;mso-bidi-theme-font:minor-bidi;color:#3F3F3F;mso-color-index:&lt;br/&gt;1;letter-spacing:.1pt;mso-font-kerning:12.0pt;language:en-US;vertical-align:&lt;br/&gt;baseline;mso-text-raise:0%;mso-style-textfill-type:solid;mso-style-textfill-fill-themecolor:&lt;br/&gt;text1;mso-style-textfill-fill-color:#3F3F3F;mso-style-textfill-fill-alpha:100.0%&quot;&gt;Data_provider&lt;/span&gt;&lt;/div&gt;" style="text;whiteSpace=wrap;html=1;" vertex="1" parent="1">
          <mxGeometry x="295" y="340" width="260" height="70" as="geometry" />
        </mxCell>
        <mxCell id="Z24hIA3jWynf53QsHg5w-7" value="&lt;div style=&quot;language:zh-CN;line-height:120%;margin-top:14.0pt;margin-bottom:&lt;br/&gt;2.0pt;margin-left:.3in;text-indent:-.3in;text-align:left;direction:ltr;&lt;br/&gt;unicode-bidi:embed;mso-line-break-override:none;word-break:normal;punctuation-wrap:&lt;br/&gt;hanging&quot;&gt;&lt;span style=&quot;font-size:24.0pt;font-family:微软雅黑;mso-ascii-font-family:微软雅黑;mso-fareast-font-family:&lt;br/&gt;微软雅黑;mso-bidi-font-family:+mn-cs;mso-ascii-theme-font:minor-latin;mso-fareast-theme-font:&lt;br/&gt;minor-fareast;mso-bidi-theme-font:minor-bidi;color:#3F3F3F;mso-color-index:&lt;br/&gt;1;letter-spacing:.1pt;mso-font-kerning:12.0pt;language:en-US;vertical-align:&lt;br/&gt;baseline;mso-text-raise:0%;mso-style-textfill-type:solid;mso-style-textfill-fill-themecolor:&lt;br/&gt;text1;mso-style-textfill-fill-color:#3F3F3F;mso-style-textfill-fill-alpha:100.0%&quot;&gt;Utils&lt;/span&gt;&lt;/div&gt;" style="text;whiteSpace=wrap;html=1;" vertex="1" parent="1">
          <mxGeometry x="550" y="340" width="110" height="70" as="geometry" />
        </mxCell>
        <mxCell id="Z24hIA3jWynf53QsHg5w-8" value="" style="endArrow=none;html=1;rounded=0;strokeWidth=3;" edge="1" parent="1">
          <mxGeometry width="50" height="50" relative="1" as="geometry">
            <mxPoint x="400" y="150" as="sourcePoint" />
            <mxPoint x="400" y="90" as="targetPoint" />
          </mxGeometry>
        </mxCell>
        <mxCell id="Z24hIA3jWynf53QsHg5w-9" value="" style="endArrow=none;html=1;rounded=0;strokeWidth=3;" edge="1" parent="1">
          <mxGeometry width="50" height="50" relative="1" as="geometry">
            <mxPoint x="400" y="250" as="sourcePoint" />
            <mxPoint x="400" y="190" as="targetPoint" />
          </mxGeometry>
        </mxCell>
        <mxCell id="Z24hIA3jWynf53QsHg5w-10" value="" style="endArrow=none;html=1;rounded=0;strokeWidth=3;" edge="1" parent="1">
          <mxGeometry width="50" height="50" relative="1" as="geometry">
            <mxPoint x="400" y="360" as="sourcePoint" />
            <mxPoint x="400" y="300" as="targetPoint" />
          </mxGeometry>
        </mxCell>
        <mxCell id="Z24hIA3jWynf53QsHg5w-11" value="" style="endArrow=none;html=1;rounded=0;strokeWidth=3;exitX=0.5;exitY=0;exitDx=0;exitDy=0;" edge="1" parent="1">
          <mxGeometry width="50" height="50" relative="1" as="geometry">
            <mxPoint x="220" y="355" as="sourcePoint" />
            <mxPoint x="395" y="300" as="targetPoint" />
          </mxGeometry>
        </mxCell>
        <mxCell id="Z24hIA3jWynf53QsHg5w-12" value="" style="endArrow=none;html=1;rounded=0;strokeWidth=3;exitX=0.5;exitY=0;exitDx=0;exitDy=0;" edge="1" parent="1">
          <mxGeometry width="50" height="50" relative="1" as="geometry">
            <mxPoint x="585" y="355" as="sourcePoint" />
            <mxPoint x="400" y="300" as="targetPoint" />
          </mxGeometry>
        </mxCell>
        <mxCell id="Z24hIA3jWynf53QsHg5w-13" value="" style="endArrow=none;html=1;rounded=0;strokeWidth=3;" edge="1" parent="1">
          <mxGeometry width="50" height="50" relative="1" as="geometry">
            <mxPoint x="210" y="450" as="sourcePoint" />
            <mxPoint x="210" y="390" as="targetPoint" />
          </mxGeometry>
        </mxCell>
      </root>
    </mxGraphModel>
  </diagram>
</mxfile>
